<svg xmlns="http://www.w3.org/2000/svg" xmlns:xlink="http://www.w3.org/1999/xlink" viewBox="0 0 176.33 203"><defs><style>.cls-1,.cls-2,.cls-3,.cls-4,.cls-5,.cls-6{fill:none;}.cls-1,.cls-2,.cls-3,.cls-4,.cls-5{stroke-miterlimit:10;}.cls-1,.cls-2{stroke-width:3px;}.cls-1{stroke:url(#未命名的渐变_354);}.cls-2{stroke:url(#未命名的渐变_354-2);}.cls-3,.cls-4{stroke-width:2px;}.cls-3{stroke:url(#未命名的渐变_354-3);}.cls-4{stroke:url(#未命名的渐变_354-4);}.cls-5{stroke:url(#未命名的渐变_354-5);}.cls-6{stroke-width:0.25px;stroke:url(#未命名的渐变_354-7);}.cls-7{fill:url(#未命名的渐变_355);}.cls-8{fill:#fff;}</style><linearGradient id="未命名的渐变_354" y1="101.5" x2="176.33" y2="101.5" gradientUnits="userSpaceOnUse"><stop offset="0" stop-color="#00206a"/><stop offset="0.76" stop-color="#ace4ff"/></linearGradient><linearGradient id="未命名的渐变_354-2" x1="13.33" y1="18.17" x2="169.67" y2="18.17" xlink:href="#未命名的渐变_354"/><linearGradient id="未命名的渐变_354-3" x1="107.57" y1="83.42" x2="159.43" y2="83.42" xlink:href="#未命名的渐变_354"/><linearGradient id="未命名的渐变_354-4" x1="112.1" y1="83.42" x2="154.9" y2="83.42" xlink:href="#未命名的渐变_354"/><linearGradient id="未命名的渐变_354-5" x1="36.8" y1="64.78" x2="90.3" y2="64.78" xlink:href="#未命名的渐变_354"/><linearGradient id="未命名的渐变_354-7" x1="42.64" y1="155.32" x2="151.22" y2="155.32" xlink:href="#未命名的渐变_354"/><linearGradient id="未命名的渐变_355" x1="41.17" y1="98.04" x2="101.57" y2="98.04" gradientUnits="userSpaceOnUse"><stop offset="0" stop-color="#00206a"/><stop offset="1" stop-color="#ace4ff"/></linearGradient></defs><g id="图层_2" data-name="图层 2"><g id="图层_2-2" data-name="图层 2"><path class="cls-1" d="M174.83,31.5V184.83a16.89,16.89,0,0,1-16.66,16.67h-140A16.89,16.89,0,0,1,1.5,184.83v-170A13.35,13.35,0,0,1,14.83,1.5H171.5a3.34,3.34,0,0,1,0,6.67H14.83a6.67,6.67,0,0,0-6.66,6.66v3.34c0,9.41,8.34,10,10,10A3.35,3.35,0,0,1,21.5,31.5V184.83a3.34,3.34,0,0,1-6.67,0V34.49a18.13,18.13,0,0,1-6.66-2.71V184.83a10.26,10.26,0,0,0,10,10h140a10.26,10.26,0,0,0,10-10v-150H31.5a3.33,3.33,0,0,1,0-6.66h140a3.33,3.33,0,0,1,3.33,3.33Z"/><path class="cls-2" d="M168.17,18.17a3.35,3.35,0,0,0-3.34-3.34H18.17a3.34,3.34,0,1,0,0,6.67H164.83A3.34,3.34,0,0,0,168.17,18.17Z"/><path class="cls-3" d="M140.3,54V69.82h15.87a2.26,2.26,0,0,1,2.26,2.26v9.07a2.27,2.27,0,0,1-2.26,2.27H140.3v29.46a2.27,2.27,0,0,1-2.26,2.27H129a2.27,2.27,0,0,1-2.27-2.27V83.42H110.84a2.27,2.27,0,0,1-2.27-2.27V72.08a2.26,2.26,0,0,1,2.27-2.26H126.7V54A2.27,2.27,0,0,1,129,51.68H138A2.27,2.27,0,0,1,140.3,54Z"/><path class="cls-4" d="M138,74.35a2.26,2.26,0,0,1-2.27-2.27V56.22h-4.53V72.08A2.27,2.27,0,0,1,129,74.35H113.1v4.53H129a2.27,2.27,0,0,1,2.27,2.27v29.47h4.53V81.15A2.27,2.27,0,0,1,138,78.88H153.9V74.35Z"/><path class="cls-5" d="M61.63,67.52a.34.34,0,0,1-.19.29,5,5,0,0,1-1.29.28,10.78,10.78,0,0,1-1.44.17,7.61,7.61,0,0,1-.85-.06,15.15,15.15,0,0,0-1.6-.06l-.89.06c-.31,0-.54-.19-.69-.59a11,11,0,0,0-1.11-2.07,4.89,4.89,0,0,0-1.91-1.66A10.46,10.46,0,0,0,49.32,63a9.26,9.26,0,0,0-1.49-.26.81.81,0,0,0-.52.15,30.8,30.8,0,0,1-4.71,3.63,4.25,4.25,0,0,0-1.21,1,1.13,1.13,0,0,1-1,.4,11.65,11.65,0,0,1-2.54-.24c-.7-.17-1.05-.38-1.05-.62s.23-.42.68-.5a14.07,14.07,0,0,0,3.32-1,15.32,15.32,0,0,0,3.5-2.18c1.14-.93,1.7-1.5,1.7-1.71s-.07-.19-.23-.34a2,2,0,0,0-.83-.37,2.64,2.64,0,0,1-.86-.33.5.5,0,0,1-.25-.42c0-.16,0-.34,0-.54s0-.34,0-.45a.91.91,0,0,0-.3-.76,5,5,0,0,1-.88-1.24,3.64,3.64,0,0,1-.59-1.38c0-.24.27-.4.81-.46a42.63,42.63,0,0,0,5-1.4,9.83,9.83,0,0,1,2.77-.52,3.84,3.84,0,0,1,2.2.8c.76.54,1.13,1,1.13,1.27s-.18.39-.56.59a3.15,3.15,0,0,0-.79.58A8.27,8.27,0,0,0,52,57.73a20.59,20.59,0,0,1-2,2.51.64.64,0,0,0-.18.4c0,.12.11.26.34.4a10.78,10.78,0,0,1,1.67,1.34A11.41,11.41,0,0,0,54,63.93a10.23,10.23,0,0,0,2.37,1,25.51,25.51,0,0,1,2.62.89,10.9,10.9,0,0,1,2.14,1C61.45,67.09,61.63,67.31,61.63,67.52Zm-6,7.22a1.5,1.5,0,0,1-.07.58.39.39,0,0,1-.36.14,6.24,6.24,0,0,1-.84-.1,28.19,28.19,0,0,0-4.13-.4c-1,0-2.49.1-4.41.29s-3.07.33-3.5.41a2.11,2.11,0,0,0-.87.29.68.68,0,0,1-.45.19c-.14,0-.34-.16-.58-.48a1.48,1.48,0,0,1-.38-.86c0-.35.2-.54.59-.58a16.75,16.75,0,0,0,3.85-.81c1.19-.41,1.85-.65,2-.71s.17-.34.17-.84a4.07,4.07,0,0,0-.09-1,.35.35,0,0,0-.34-.29,2.64,2.64,0,0,0-1.7.4.58.58,0,0,1-.35.15c-.1,0-.25-.21-.44-.65s-.37-.76-.5-1a1.09,1.09,0,0,1-.2-.56c0-.33.27-.5.8-.52a10.59,10.59,0,0,0,1.45-.24,4.43,4.43,0,0,0,1.27-.34,1.18,1.18,0,0,0,.17-.54,6.86,6.86,0,0,0,.06-.94,5.17,5.17,0,0,0-.06-.86,2.57,2.57,0,0,1-.07-.55.52.52,0,0,1,.58-.59,7.2,7.2,0,0,1,1.67.28c.73.18,1.1.41,1.1.68a1,1,0,0,1-.12.4,1.92,1.92,0,0,0-.13.79,1.68,1.68,0,0,0,.08.67q.08.12.54.12a8.86,8.86,0,0,1,1.07.08,1.72,1.72,0,0,1,.75.2.92.92,0,0,1,.2.53,5.55,5.55,0,0,1,.06.82,1.62,1.62,0,0,1-.08.59.3.3,0,0,1-.26.18l-.4,0a6.49,6.49,0,0,0-1.09.23,3.87,3.87,0,0,0-1.08.4c-.15.12-.22.65-.22,1.6a.51.51,0,0,0,.19.45,3.81,3.81,0,0,0,1.36.22c.78,0,1.44.07,2,.07a4.94,4.94,0,0,0,1.13-.09,2.28,2.28,0,0,1,.46-.09c.27,0,.55.28.83.85A3.54,3.54,0,0,1,55.64,74.74Zm-5.73-18.5c0-.5-.38-.75-1.15-.75a1.56,1.56,0,0,0-1,.53,7.65,7.65,0,0,1-2.26,1.37c-.31.12-.46.27-.46.46a.81.81,0,0,0,.12.46,1.72,1.72,0,0,0,.76.44,11.85,11.85,0,0,1,1.19.53,3,3,0,0,0,.65.27c.17,0,.56-.43,1.18-1.31A4.13,4.13,0,0,0,49.91,56.24Z"/><path class="cls-5" d="M76,60.05c.16,0,.34.12.53.36a1.06,1.06,0,0,1,.27.62c0,.17-.24.55-.74,1.13a17.38,17.38,0,0,0-1.77,2.46,4.74,4.74,0,0,0-.68,1.54q0,.21.27.21a1.43,1.43,0,0,0,.65-.2A1.61,1.61,0,0,1,75,66c.16,0,.3.16.41.47a2.31,2.31,0,0,1,.18.83.72.72,0,0,1-.38.62,4.52,4.52,0,0,1-1.19.5,19.76,19.76,0,0,0-2.15.82A12.07,12.07,0,0,0,70.2,70a1.09,1.09,0,0,1-.58.25,2.5,2.5,0,0,1-.93-.56c-.47-.37-.71-.62-.71-.74s.19-.34.56-.59a3.36,3.36,0,0,1,.93-.47,3.26,3.26,0,0,0,1.41-1.17,3.47,3.47,0,0,0,.79-1.26c0-.18-.08-.26-.25-.26a10,10,0,0,0-2.54,1,.86.86,0,0,1-.4.12q-.44,0-.75-.75a3.63,3.63,0,0,1-.31-1.11A.68.68,0,0,1,67.7,64a4,4,0,0,0,1-1.06q2-3.28,3.27-5.25a26.05,26.05,0,0,1,1.52-2.15.57.57,0,0,1,.38-.19,3,3,0,0,1,.91.53c.5.35.74.64.74.86a1.66,1.66,0,0,1-.49.93Q71.42,62,71.42,62.53c0,.1.09.16.28.16a4.8,4.8,0,0,0,1.81-.25,3.93,3.93,0,0,0,1.24-1.13c.47-.59.76-1,.89-1.07A.5.5,0,0,1,76,60.05Zm-.34,10.32A2.07,2.07,0,0,1,75,71.6a12.15,12.15,0,0,1-2.69,1.83,19.19,19.19,0,0,0-2.43,1.47.4.4,0,0,1-.25.09c-.24,0-.53-.21-.86-.64a1.85,1.85,0,0,1-.5-1.11.63.63,0,0,1,.34-.64,30.71,30.71,0,0,0,3-1.56,8,8,0,0,1,1.77-.81,6.53,6.53,0,0,1,1.66-.45C75.46,69.78,75.67,70,75.67,70.37Zm13,1.71c.54,0,.95.33,1.24,1a4.5,4.5,0,0,1,.44,1.4c0,.26-.16.39-.47.39a1.05,1.05,0,0,1-.4-.1,15.08,15.08,0,0,0-4.8-.59,19,19,0,0,0-3.2.25c-.93.17-1.84.29-2.74.37a11.17,11.17,0,0,0-2.59.56.54.54,0,0,1-.25.06.56.56,0,0,1-.54-.41,2.36,2.36,0,0,1-.17-.87c0-.3.18-.48.53-.54a27,27,0,0,0,2.94-.76,12.94,12.94,0,0,0,1.57-.58,1.68,1.68,0,0,0,.59-.79,2.77,2.77,0,0,0,.29-1.11A2.54,2.54,0,0,0,81,69.6a.43.43,0,0,0-.31-.33,4.26,4.26,0,0,0-.73,0,.76.76,0,0,1-.67-.25l-.4-.67a1.93,1.93,0,0,1-.25-1,1.81,1.81,0,0,1,.11-.78.46.46,0,0,1,.42-.17l.5,0a10.46,10.46,0,0,0,2.72-.68A10.87,10.87,0,0,1,85.18,65c.27,0,.53.27.79.82a3.3,3.3,0,0,1,.39,1.3,1.09,1.09,0,0,1-.11.61,1.15,1.15,0,0,1-.52.23,2.32,2.32,0,0,0-.75.33c-.22.14-.38.58-.48,1.33a13.54,13.54,0,0,0-.15,1.63,1.51,1.51,0,0,0,.07.62,3.37,3.37,0,0,0,1.21.18c.76,0,1.37.08,1.85.08ZM83.29,60.3q0,.5,2.61,1c1.61.35,2.52.57,2.74.65s.38.32.5.7a5.92,5.92,0,0,1,.17,1.58c0,.67-.13,1-.38,1a10.37,10.37,0,0,1-1.61-.82,25.4,25.4,0,0,1-2.82-1.86,4,4,0,0,0-2.2-1c-.25,0-.56.2-.94.6a4.82,4.82,0,0,0-1,1.82c-.17.41-.33.66-.5.74l-1.33.65a4.58,4.58,0,0,1-1.49.5,3.82,3.82,0,0,1-.93-.14c-.35-.1-.52-.22-.52-.36s.26-.53.8-.78a10.73,10.73,0,0,0,3.29-2.46,4.61,4.61,0,0,0,1.52-2.46c0-.23-.13-.34-.38-.34a2.72,2.72,0,0,0-.83.14,2.89,2.89,0,0,1-.59.13c-.37,0-.58-.28-.62-.85a9.54,9.54,0,0,0-.19-1.39,4.43,4.43,0,0,1-.12-.7c0-.1.18-.15.56-.15a21.77,21.77,0,0,0,2.32-.52,20.65,20.65,0,0,0,2.43-.69,1.45,1.45,0,0,1,.58-.19,1.07,1.07,0,0,1,.55.28,9.33,9.33,0,0,0,1.43.77.8.8,0,0,1,.47.73.63.63,0,0,1-.38.64A6.68,6.68,0,0,0,84.1,59C83.56,59.58,83.29,60,83.29,60.3Z"/><path class="cls-6" d="M65.48,146v.89H63.39v6.27H62.23v-6.27H60.16V146Z"/><path class="cls-6" d="M67.41,145.91v2.67a2.55,2.55,0,0,1,.75-.59,1.69,1.69,0,0,1,.8-.23,2.74,2.74,0,0,1,.64.08,1.63,1.63,0,0,1,.63.35,1.5,1.5,0,0,1,.38.58,2.38,2.38,0,0,1,.13.79v3.62H69.6v-3.41a3.49,3.49,0,0,0,0-.44,1,1,0,0,0-.16-.41.76.76,0,0,0-.3-.23,1.05,1.05,0,0,0-.4-.07,1,1,0,0,0-.34.07,2.71,2.71,0,0,0-.37.21,2.85,2.85,0,0,0-.57.63v3.65H66.28v-7.27Z"/><path class="cls-6" d="M72.07,149.51a2.68,2.68,0,0,1,.52-.95,2.1,2.1,0,0,1,.86-.6,2.6,2.6,0,0,1,.88-.17,3.1,3.1,0,0,1,.84.15,2.19,2.19,0,0,1,.85.55,2.76,2.76,0,0,1,.52.87,3.92,3.92,0,0,1,.17,1.07v.42H73.05a2.18,2.18,0,0,0,.1.67,1.43,1.43,0,0,0,.27.46,1.39,1.39,0,0,0,1,.47,2.09,2.09,0,0,0,1-.18,3,3,0,0,0,.78-.55l.46.29a2.81,2.81,0,0,1-1,1,2.74,2.74,0,0,1-1.36.36,2.66,2.66,0,0,1-.85-.14,2.15,2.15,0,0,1-.87-.55,2.53,2.53,0,0,1-.52-.88,3.11,3.11,0,0,1-.18-1.13A3.79,3.79,0,0,1,72.07,149.51Zm3.44.52a1.53,1.53,0,0,0-.29-.95,1.13,1.13,0,0,0-.89-.42,1.1,1.1,0,0,0-.84.37,1.45,1.45,0,0,0-.39,1Z"/><path class="cls-6" d="M83.91,146a3.62,3.62,0,0,1,1,.13,2.1,2.1,0,0,1,.71.37,1.61,1.61,0,0,1,.4.63,2.35,2.35,0,0,1,.09.64,1.75,1.75,0,0,1-.34,1,2,2,0,0,1-.74.6,1.78,1.78,0,0,1,1,.65,1.86,1.86,0,0,1,.38,1.11,2.7,2.7,0,0,1-.12.7,1.94,1.94,0,0,1-.48.72A2.27,2.27,0,0,1,85,153a3.73,3.73,0,0,1-1,.16H80.91V146Zm-1.84,3h1.8a1.09,1.09,0,0,0,.75-.34,1,1,0,0,0,0-1.52,1.2,1.2,0,0,0-.4-.22l-.41-.06H82.07Zm0,3.26h1.87a1.24,1.24,0,0,0,.93-.36,1.3,1.3,0,0,0,.35-.86,1.14,1.14,0,0,0-.33-.82,1.27,1.27,0,0,0-.42-.25,2.34,2.34,0,0,0-.53-.08H82.07Z"/><path class="cls-6" d="M87.6,146a.73.73,0,0,1,.46-.18.8.8,0,0,1,.45.18.72.72,0,0,1,.22.49.73.73,0,0,1-.18.46.67.67,0,0,1-.49.21.68.68,0,0,1-.46-.16.7.7,0,0,1,0-1Zm1,2v5.21H87.49V148Z"/><path class="cls-6" d="M91.1,145.91v2.67a2.08,2.08,0,0,1,.61-.57,1.64,1.64,0,0,1,.78-.22,2.78,2.78,0,0,1,.85.16,1.87,1.87,0,0,1,.79.58,2.68,2.68,0,0,1,.45.93,4.71,4.71,0,0,1,.15,1.18,3.51,3.51,0,0,1-.17,1.06,2.66,2.66,0,0,1-.5.9,2.27,2.27,0,0,1-.82.58,2.39,2.39,0,0,1-.83.15,1.43,1.43,0,0,1-.69-.19,1.79,1.79,0,0,1-.61-.55v.63H90v-7.31Zm0,5.83a2,2,0,0,0,.53.55,1.07,1.07,0,0,0,.61.18,1.12,1.12,0,0,0,1-.52,2,2,0,0,0,.28-.63,3.1,3.1,0,0,0,.1-.68,3.59,3.59,0,0,0-.13-.87,2.41,2.41,0,0,0-.3-.65,1.17,1.17,0,0,0-.92-.46,1.11,1.11,0,0,0-.61.18,1.58,1.58,0,0,0-.53.59Z"/><path class="cls-6" d="M97,145.91v7.27H95.9v-7.27Z"/><path class="cls-6" d="M98.37,149.51a2.68,2.68,0,0,1,.52-.95,2.1,2.1,0,0,1,.86-.6,2.6,2.6,0,0,1,.88-.17,3.1,3.1,0,0,1,.84.15,2.19,2.19,0,0,1,.85.55,2.76,2.76,0,0,1,.52.87,3.92,3.92,0,0,1,.17,1.07v.42H99.35a2.18,2.18,0,0,0,.1.67,1.43,1.43,0,0,0,.27.46,1.39,1.39,0,0,0,1,.47,2.09,2.09,0,0,0,1-.18,3,3,0,0,0,.78-.55l.46.29a2.81,2.81,0,0,1-1,1,2.74,2.74,0,0,1-1.36.36,2.66,2.66,0,0,1-.85-.14,2.15,2.15,0,0,1-.87-.55,2.53,2.53,0,0,1-.52-.88,3.11,3.11,0,0,1-.18-1.13A3.79,3.79,0,0,1,98.37,149.51Zm3.44.52a1.53,1.53,0,0,0-.29-.95,1.13,1.13,0,0,0-.89-.42,1.11,1.11,0,0,0-.84.37,1.45,1.45,0,0,0-.39,1Z"/><path class="cls-6" d="M107.16,148.09a4,4,0,0,1,.73-1.24,3.23,3.23,0,0,1,1.19-.81,4.63,4.63,0,0,1,1.18-.2,4.7,4.7,0,0,1,1.18.2,3.15,3.15,0,0,1,1.19.81,3.63,3.63,0,0,1,.73,1.24,5,5,0,0,1,.26,1.53,5.32,5.32,0,0,1-.25,1.53,3.82,3.82,0,0,1-.74,1.24,3,3,0,0,1-1.18.77,4.43,4.43,0,0,1-1.19.2,3.61,3.61,0,0,1-1.18-.2,3.26,3.26,0,0,1-1.19-.77,4,4,0,0,1-.73-1.24,5,5,0,0,1,0-3.06Zm1.07,2.61a3.07,3.07,0,0,0,.47,1,2.13,2.13,0,0,0,.78.65,1.91,1.91,0,0,0,.78.16,2.18,2.18,0,0,0,.79-.16,2.13,2.13,0,0,0,.78-.65,3.07,3.07,0,0,0,.47-1,4.34,4.34,0,0,0,.16-1.08,4.48,4.48,0,0,0-.16-1.08,3.52,3.52,0,0,0-.46-1,2.29,2.29,0,0,0-.78-.67,2.72,2.72,0,0,0-.8-.17,2.59,2.59,0,0,0-.79.17,2.2,2.2,0,0,0-.78.67,3.54,3.54,0,0,0-.47,1,4.45,4.45,0,0,0-.14,1.08A3.91,3.91,0,0,0,108.23,150.7Z"/><path class="cls-6" d="M115,148v-.41a2.81,2.81,0,0,1,.1-.81,2.58,2.58,0,0,1,.22-.44,1.18,1.18,0,0,1,.49-.36,2.11,2.11,0,0,1,1.77.17l-.23.49a1.31,1.31,0,0,0-.47-.12.81.81,0,0,0-.53.18.66.66,0,0,0-.21.55V148h1.2v.85h-1.2v4.36H115v-4.36h-.7V148Z"/><path class="cls-6" d="M121,148a3.7,3.7,0,0,1,.75-1.23A3.14,3.14,0,0,1,123,146a4.94,4.94,0,0,1,1.15-.19,4.5,4.5,0,0,1,1,.15,3.6,3.6,0,0,1,.77.36,2.89,2.89,0,0,1,1.1,1.48l-1.11.27a3.64,3.64,0,0,0-.34-.65,2.24,2.24,0,0,0-.43-.44,1.87,1.87,0,0,0-1-.29,2.41,2.41,0,0,0-.75.17,2.17,2.17,0,0,0-.78.63,3.15,3.15,0,0,0-.48.95,3.9,3.9,0,0,0-.17,1.12,4.15,4.15,0,0,0,.15,1.12,2.89,2.89,0,0,0,.46,1,2.11,2.11,0,0,0,.76.63,2,2,0,0,0,.8.16,1.72,1.72,0,0,0,1.21-.48,2.22,2.22,0,0,0,.43-.62,2.07,2.07,0,0,0,.19-.74v-.42H124v-.89h3.08v3.86h-.93v-1a2.28,2.28,0,0,1-.94.93,2.31,2.31,0,0,1-1.12.29,3.51,3.51,0,0,1-1.44-.31,3.14,3.14,0,0,1-1.08-.86,3.79,3.79,0,0,1-.65-1.34,5.44,5.44,0,0,1-.15-1.27A5.18,5.18,0,0,1,121,148Z"/><path class="cls-6" d="M128.64,151.12a2.14,2.14,0,0,0,1.46,1.26,3.47,3.47,0,0,0,.79.08,1.56,1.56,0,0,0,1-.27,1,1,0,0,0,.37-.72,1.19,1.19,0,0,0-.09-.36,1.68,1.68,0,0,0-.3-.4,2.71,2.71,0,0,0-.49-.31,5.42,5.42,0,0,0-.6-.26,8.24,8.24,0,0,1-1.23-.52,3.65,3.65,0,0,1-.79-.56,2.31,2.31,0,0,1-.4-.53,1.55,1.55,0,0,1-.12-.64,1.87,1.87,0,0,1,.68-1.44,2.62,2.62,0,0,1,.84-.45,3.52,3.52,0,0,1,1-.17,4.05,4.05,0,0,1,.85.12,2.44,2.44,0,0,1,.77.35,2.27,2.27,0,0,1,.91,1.28l-1.1.21a2,2,0,0,0-.23-.46,1.3,1.3,0,0,0-1.2-.61l-.48.05a1.48,1.48,0,0,0-.48.2,1,1,0,0,0-.29.34.83.83,0,0,0-.09.44.68.68,0,0,0,.08.34,1.25,1.25,0,0,0,.38.38,3.42,3.42,0,0,0,.62.35c.26.11.54.21.82.3a5.48,5.48,0,0,1,.85.4,3.35,3.35,0,0,1,.7.54,2.37,2.37,0,0,1,.45.68,1.7,1.7,0,0,1,.11.58,2.2,2.2,0,0,1-.18.88,1.66,1.66,0,0,1-.54.66,2.31,2.31,0,0,1-.89.4,4.61,4.61,0,0,1-.91.1,4.33,4.33,0,0,1-.95-.11,3.29,3.29,0,0,1-.95-.44,2.71,2.71,0,0,1-1-1.49Z"/><path class="cls-6" d="M44.4,157.5,46.17,163l1.69-5.53h1.82v7.16H48.51v-5.91l-1.9,5.91h-.89l-1.92-5.91v5.91H42.64V157.5Z"/><path class="cls-6" d="M50.88,162.73a1.71,1.71,0,0,1,.46-.58,3.26,3.26,0,0,1,.73-.41,5.82,5.82,0,0,1,.93-.26,2.78,2.78,0,0,0,.46-.11,1.78,1.78,0,0,0,.36-.14A.76.76,0,0,0,54,161a.83.83,0,0,0,.06-.21.63.63,0,0,0-.25-.49,1,1,0,0,0-.35-.16,2.33,2.33,0,0,0-.37,0,1.21,1.21,0,0,0-.73.24,1.53,1.53,0,0,0-.48.53l-1-.32a2.13,2.13,0,0,1,.87-1,2.67,2.67,0,0,1,1.3-.36,3.86,3.86,0,0,1,.76.1,2.06,2.06,0,0,1,.73.35,1.6,1.6,0,0,1,.42.59,2.2,2.2,0,0,1,.15.72v2.84a.52.52,0,0,0,0,.27.16.16,0,0,0,.15.07.52.52,0,0,0,.27-.05l.09.35a.8.8,0,0,1-.32.19,1.8,1.8,0,0,1-.45.09.82.82,0,0,1-.54-.22.89.89,0,0,1-.24-.54,1.7,1.7,0,0,1-.62.54,2.08,2.08,0,0,1-1,.24,2.38,2.38,0,0,1-.7-.11,1.76,1.76,0,0,1-.62-.33,1.47,1.47,0,0,1-.4-1.64Zm1.21,1.07a1.05,1.05,0,0,0,.66.16,1.55,1.55,0,0,0,1-.32,1,1,0,0,0,.4-.82V162a1.59,1.59,0,0,1-.27.12l-.51.14-.62.19a1.92,1.92,0,0,0-.64.36.61.61,0,0,0-.23.47A.6.6,0,0,0,52.09,163.8Z"/><path class="cls-6" d="M57.8,157.39v4l1.82-1.93h1.31l-1.74,1.94,2,3.27H59.91l-1.47-2.58-.64.67v1.91H56.67v-7.27Z"/><path class="cls-6" d="M61.83,161a2.82,2.82,0,0,1,.51-1,2.24,2.24,0,0,1,.86-.6,3,3,0,0,1,.88-.17,3.1,3.1,0,0,1,.85.15,2.19,2.19,0,0,1,.85.55,2.56,2.56,0,0,1,.51.87,3.93,3.93,0,0,1,.18,1.07v.42H62.81a2.18,2.18,0,0,0,.1.67,1.43,1.43,0,0,0,.27.46,1.37,1.37,0,0,0,1,.47,2,2,0,0,0,1-.18,3,3,0,0,0,.79-.55l.46.29a2.75,2.75,0,0,1-2.35,1.32,2.75,2.75,0,0,1-.85-.14,2.21,2.21,0,0,1-.86-.54,2.67,2.67,0,0,1-.52-.89,3.35,3.35,0,0,1-.19-1.13A3.8,3.8,0,0,1,61.83,161Zm3.44.52a1.48,1.48,0,0,0-.3-.95,1.1,1.1,0,0,0-.89-.42,1.13,1.13,0,0,0-.84.37,1.49,1.49,0,0,0-.38,1Z"/><path class="cls-6" d="M70.63,159.51a3.61,3.61,0,0,1,.74-1.23,3.35,3.35,0,0,1,1.19-.77,5,5,0,0,1,1.16-.19,4.5,4.5,0,0,1,1,.15,3.68,3.68,0,0,1,.78.36,3,3,0,0,1,1.1,1.48l-1.11.27a3.68,3.68,0,0,0-.35-.65,2.23,2.23,0,0,0-.43-.44,1.83,1.83,0,0,0-1-.29,2.53,2.53,0,0,0-.76.17,2.23,2.23,0,0,0-.77.63,3.18,3.18,0,0,0-.49.95,3.89,3.89,0,0,0-.16,1.12,4.58,4.58,0,0,0,.14,1.12,3.09,3.09,0,0,0,.46,1,2.06,2.06,0,0,0,.77.63,2,2,0,0,0,.79.16,1.73,1.73,0,0,0,1.21-.47,2.47,2.47,0,0,0,.44-.63,2.31,2.31,0,0,0,.19-.74v-.42H73.61v-.89h3.08v3.86h-.92v-1a2.4,2.4,0,0,1-.94.93,2.35,2.35,0,0,1-1.13.29,3.58,3.58,0,0,1-1.44-.31,3.22,3.22,0,0,1-1.08-.86,4,4,0,0,1-.65-1.34,5.44,5.44,0,0,1-.15-1.27A4.9,4.9,0,0,1,70.63,159.51Z"/><path class="cls-6" d="M78.25,162.6a2.52,2.52,0,0,0,.84,1,2.22,2.22,0,0,0,.63.27,3.33,3.33,0,0,0,.78.08,1.56,1.56,0,0,0,1-.27.89.89,0,0,0,.37-.72.85.85,0,0,0-.08-.35,1.39,1.39,0,0,0-.31-.41,2.71,2.71,0,0,0-.49-.31,6.21,6.21,0,0,0-.59-.26,8.82,8.82,0,0,1-1.24-.52,3.91,3.91,0,0,1-.79-.56,2,2,0,0,1-.39-.53,1.56,1.56,0,0,1-.13-.64,1.87,1.87,0,0,1,.68-1.43,2.61,2.61,0,0,1,.85-.46,3.52,3.52,0,0,1,1-.17,4.05,4.05,0,0,1,.84.12,2.74,2.74,0,0,1,.78.35,2.25,2.25,0,0,1,.9,1.28l-1.1.21a1.65,1.65,0,0,0-.23-.46,1.19,1.19,0,0,0-.32-.35,1.48,1.48,0,0,0-.87-.26l-.49.05a1.68,1.68,0,0,0-.48.2.93.93,0,0,0-.28.34.84.84,0,0,0-.1.44.69.69,0,0,0,.09.34,1.22,1.22,0,0,0,.37.38,3.79,3.79,0,0,0,.62.35,8,8,0,0,0,.82.3,5.08,5.08,0,0,1,.85.4,2.9,2.9,0,0,1,.7.54,2.18,2.18,0,0,1,.45.68,2,2,0,0,1,.12.59,2.27,2.27,0,0,1-.18.88,1.84,1.84,0,0,1-.55.66,2.37,2.37,0,0,1-.89.39,4.61,4.61,0,0,1-.91.1,4.24,4.24,0,0,1-.94-.11,3.06,3.06,0,0,1-1-.44,2.69,2.69,0,0,1-1-1.48Z"/><path class="cls-6" d="M87.11,159.51a3.81,3.81,0,0,1,.75-1.23,3.26,3.26,0,0,1,1.19-.77,4.94,4.94,0,0,1,1.15-.19,4.58,4.58,0,0,1,1,.15,3.6,3.6,0,0,1,.77.36,2.89,2.89,0,0,1,1.1,1.48l-1.11.27a3.64,3.64,0,0,0-.34-.65,2.55,2.55,0,0,0-.43-.44,1.89,1.89,0,0,0-1-.29,2.41,2.41,0,0,0-.75.17,2.17,2.17,0,0,0-.78.63,3.43,3.43,0,0,0-.49.95,4.27,4.27,0,0,0-.16,1.12,4.15,4.15,0,0,0,.15,1.12,2.87,2.87,0,0,0,.45,1,2.14,2.14,0,0,0,.77.63,2,2,0,0,0,.79.16,1.78,1.78,0,0,0,1.22-.47,2.43,2.43,0,0,0,.43-.63,2.07,2.07,0,0,0,.19-.74v-.42H90.1v-.89h3.08v3.86h-.93v-1a2.38,2.38,0,0,1-2.07,1.22,3.5,3.5,0,0,1-1.43-.31,3,3,0,0,1-1.08-.86,3.63,3.63,0,0,1-.65-1.34,5.46,5.46,0,0,1-.16-1.27A5.19,5.19,0,0,1,87.11,159.51Z"/><path class="cls-6" d="M97.4,157.5a3.09,3.09,0,0,1,.95.15,1.9,1.9,0,0,1,.7.41,1.68,1.68,0,0,1,.4.68,2.53,2.53,0,0,1,.11.66,2,2,0,0,1-.3,1,1.94,1.94,0,0,1-.75.7h0a1.59,1.59,0,0,1,.65.53,1.65,1.65,0,0,1,.21.42,3.18,3.18,0,0,1,.1.52c.06.69.14,1.38.23,2.06H98.52c0-.69-.13-1.39-.23-2.08a2.24,2.24,0,0,0-.14-.46,1,1,0,0,0-.23-.34,1,1,0,0,0-.68-.23H95.65v3.11H94.49V157.5Zm-1.76,3.15h1.69a1.07,1.07,0,0,0,.43-.09,1.42,1.42,0,0,0,.35-.29,1.29,1.29,0,0,0,.27-.78,1.14,1.14,0,0,0-.3-.77,1.21,1.21,0,0,0-.84-.34h-1.6Z"/><path class="cls-6" d="M102.89,157.5H104c.92,2.39,1.86,4.78,2.79,7.16H105.6l-.66-1.8h-3l-.66,1.8h-1.17Zm1.73,4.46-1.18-3.2-1.17,3.2Z"/><path class="cls-6" d="M112.23,157.5v.89h-2.09v6.27H109v-6.27h-2.07v-.89Z"/><path class="cls-6" d="M117.81,157.5v.88h-3.62v2.12h3.32v.88h-3.32v2.4h3.75v.88H113V157.5Z"/><path class="cls-6" d="M124.16,157.5h1.11q1.38,3.58,2.79,7.16h-1.19l-.67-1.8h-3l-.66,1.8h-1.18Zm1.73,4.46-1.18-3.2-1.17,3.2Z"/><path class="cls-6" d="M128.75,159.51a3.64,3.64,0,0,1,.75-1.23,3.22,3.22,0,0,1,1.18-.77,5,5,0,0,1,1.16-.19,4.42,4.42,0,0,1,1,.15,3.47,3.47,0,0,1,.78.36,3,3,0,0,1,1.1,1.48l-1.11.27a3.68,3.68,0,0,0-.35-.65,2.23,2.23,0,0,0-.43-.44,1.83,1.83,0,0,0-1-.29,2.53,2.53,0,0,0-.76.17,2.23,2.23,0,0,0-.77.63,3.18,3.18,0,0,0-.49.95,3.89,3.89,0,0,0-.16,1.12,4.58,4.58,0,0,0,.14,1.12,3.09,3.09,0,0,0,.46,1,2.14,2.14,0,0,0,.77.63,2,2,0,0,0,.79.16,1.78,1.78,0,0,0,1.22-.47,2.7,2.7,0,0,0,.43-.63,2.07,2.07,0,0,0,.19-.74v-.42h-1.93v-.89h3.09v3.86h-.93v-1a2.4,2.4,0,0,1-.94.93,2.35,2.35,0,0,1-1.13.29,3.5,3.5,0,0,1-1.43-.31,3.16,3.16,0,0,1-1.09-.86,4,4,0,0,1-.65-1.34,5.44,5.44,0,0,1-.15-1.27A4.9,4.9,0,0,1,128.75,159.51Z"/><path class="cls-6" d="M138.21,157.5h1.11q1.4,3.58,2.8,7.16h-1.2l-.66-1.8h-3l-.66,1.8h-1.17Zm1.73,4.46-1.17-3.2-1.18,3.2Z"/><path class="cls-6" d="M144,157.5v7.16h-1.16V157.5Z"/><path class="cls-6" d="M147.07,157.5l3,5.91V157.5h1.14v7.16h-1.61l-3-5.9v5.9h-1.15V157.5Z"/><rect class="cls-7" x="41.17" y="87.46" width="60.4" height="21.16" rx="10.58"/><path class="cls-8" d="M54.47,93.33a12.71,12.71,0,0,0,1-1.69l1.46.13a9.26,9.26,0,0,1-.49.94h2.87v.81a17.36,17.36,0,0,0,.89-1.9l1.44.14c-.13.32-.28.64-.44.95H64.6v.92H62.3c.23.3.47.59.73.87l-.37.36a2.46,2.46,0,0,1-.9-.34A2.6,2.6,0,0,1,61,93.8l.33-.17h-.82A4.47,4.47,0,0,1,59,94.89l-.42-.32a9.05,9.05,0,0,0,.63-.94H57.32a9.16,9.16,0,0,0,.67.87l-.38.36a2.48,2.48,0,0,1-.86-.35,2.54,2.54,0,0,1-.68-.74l.31-.14h-.62a5.89,5.89,0,0,1-2,1.58l-.4-.44A9.84,9.84,0,0,0,54.47,93.33Zm.19,3.55h3.76v-1H54.88V95h8.78v1.92a.83.83,0,0,1-.31.66,1.34,1.34,0,0,1-.44.2,2.28,2.28,0,0,1-.64.06H59.88v1h4.46c-.07.67-.16,1.34-.24,2a2.47,2.47,0,0,1-.19.6,1,1,0,0,1-.25.28,1.55,1.55,0,0,1-.53.23,4.08,4.08,0,0,1-.77.07,2.85,2.85,0,0,1-.82-.11,5.6,5.6,0,0,1-.81-.3l-.08,0V101l1.35.06a.75.75,0,0,0,.49-.11.71.71,0,0,0,.21-.46c0-.27,0-.55.07-.82H59.88v2.43a.73.73,0,0,1-.19.5.67.67,0,0,1-.53.23h-.74v-2.15a9.12,9.12,0,0,1-2.11,1.18,15.12,15.12,0,0,1-2.65.75l-.26-.68a16.49,16.49,0,0,0,2.53-1,10.34,10.34,0,0,0,2-1.29H54.15Zm1.15,1.88h2.61v-1H55.89Zm4.07-2.88v1h2.39v-1Z"/><path class="cls-8" d="M77,96.28v1.24H65.77V96.28Z"/><path class="cls-8" d="M80.05,95.17h.78V91.86h1.34v3.31h.55v1H80.05v1.36h2v4.15a8.29,8.29,0,0,0,.85-2.32,14.63,14.63,0,0,0,.21-1.5q.06-.89.06-1.8V92.81a37.12,37.12,0,0,0,5.43-.75l.24,1.07a18.6,18.6,0,0,1-2.35.4,9.1,9.1,0,0,1-2,0v1.68h4.31v1a12.93,12.93,0,0,1-.71,2.26,7.7,7.7,0,0,1-1,1.64,6.7,6.7,0,0,0,.91,1,10.05,10.05,0,0,0,1.36,1l-.25.66a9.36,9.36,0,0,1-2.71-1.93A8.53,8.53,0,0,1,85,102a14.48,14.48,0,0,1-1.65.88l-.3-.6a16,16,0,0,0,1.44-1A9.83,9.83,0,0,0,85.74,100a8.58,8.58,0,0,1-1.24-3,12.94,12.94,0,0,1-.16,1.76,7.46,7.46,0,0,1-.41,1.45,6.62,6.62,0,0,1-.77,1.31c-.27.32-.56.63-.86.93l-.22-.22a.7.7,0,0,1-.23.44.68.68,0,0,1-.43.15h-.63V98.56H80a13.9,13.9,0,0,1-.16,1.43,7.35,7.35,0,0,1-.37,1.21A5.22,5.22,0,0,1,78.1,103l-.46-.43a5.79,5.79,0,0,0,.83-2.17,13.71,13.71,0,0,0,.18-1.57c0-.68,0-1.37,0-2.06V92.06h1.36Zm4.45,1.54,1.09-.26A10.64,10.64,0,0,0,86.45,99a10.17,10.17,0,0,0,1-2.8H84.51C84.51,96.36,84.51,96.54,84.5,96.71Z"/></g></g></svg>